# xmcd
#
# Track frame offsets:
#	150
#	21600
#	39187
#	54500
#	77512
#	92512
#
# Disc length: 1504 seconds
#
# Revision: 1
# Processed by: cddbd v1.5.1PL0 Copyright (c) Steve Scherf et al.
# Submitted via: CDex 1.50Beta5
#
DISCID=3c05de06
DTITLE=Flower Children - LOVeの伝説
DYEAR=1900
DGENRE=Pop
TTITLE0=たとえば、愛だよね (Album Remix)
TTITLE1=ハンバーガー
TTITLE2=LOVeの伝説
TTITLE3=許されない愛
TTITLE4=アラビアン
TTITLE5=愛じゃない
EXTD=
EXTT0=
EXTT1=
EXTT2=
EXTT3=
EXTT4=
EXTT5=
PLAYORDER=
